<svg width="36" height="36" viewBox="0 0 36 36" fill="none" xmlns="http://www.w3.org/2000/svg">
<rect width="36" height="36" fill="#F5F5F5"/>
<g id="Section 1">
<path d="M-1589 -2194C-1589 -2195.1 -1588.1 -2196 -1587 -2196H13520C13521.1 -2196 13522 -2195.1 13522 -2194V2718C13522 2719.1 13521.1 2720 13520 2720H-1587C-1588.1 2720 -1589 2719.1 -1589 2718V-2194Z" fill="#D1D1D1" fill-opacity="0.5"/>
<g id="Home" clip-path="url(#clip0_0_1)">
<rect width="1440" height="3845" transform="translate(-1087 -1736)" fill="white"/>
<g id="review">
<rect width="1440" height="486" transform="translate(-1087 -120)" fill="#393939"/>
<g id="Frame 4653">
<g id="Frame 4637">
<path id="Star 1" d="M14.083 4.23657C15.543 0.768722 20.457 0.76872 21.917 4.23656L23.9252 9.00647C24.508 10.3907 25.6093 11.492 26.9935 12.0748L31.7634 14.083C35.2313 15.543 35.2313 20.457 31.7634 21.917L26.9935 23.9252C25.6093 24.508 24.508 25.6093 23.9252 26.9935L21.917 31.7634C20.457 35.2313 15.543 35.2313 14.083 31.7634L12.0748 26.9935C11.492 25.6093 10.3907 24.508 9.00648 23.9252L4.23657 21.917C0.768722 20.457 0.76872 15.543 4.23656 14.083L9.00647 12.0748C10.3907 11.492 11.492 10.3907 12.0748 9.00648L14.083 4.23657Z" stroke="#FEFCFC" stroke-width="1.5"/>
</g>
</g>
</g>
</g>
<path d="M-1587 -2195H13520V-2197H-1587V-2195ZM13521 -2194V2718H13523V-2194H13521ZM13520 2719H-1587V2721H13520V2719ZM-1588 2718V-2194H-1590V2718H-1588ZM-1587 2719C-1587.55 2719 -1588 2718.55 -1588 2718H-1590C-1590 2719.66 -1588.66 2721 -1587 2721V2719ZM13521 2718C13521 2718.55 13520.6 2719 13520 2719V2721C13521.7 2721 13523 2719.66 13523 2718H13521ZM13520 -2195C13520.6 -2195 13521 -2194.55 13521 -2194H13523C13523 -2195.66 13521.7 -2197 13520 -2197V-2195ZM-1587 -2197C-1588.66 -2197 -1590 -2195.66 -1590 -2194H-1588C-1588 -2194.55 -1587.55 -2195 -1587 -2195V-2197Z" fill="black" fill-opacity="0.1"/>
</g>
<defs>
<clipPath id="clip0_0_1">
<rect width="1440" height="3845" fill="white" transform="translate(-1087 -1736)"/>
</clipPath>
</defs>
</svg>
